<svg data-v-423bf9ae="" xmlns="http://www.w3.org/2000/svg" viewBox="0 0 596 90" class="iconLeftSlogan"><!----><!----><!----><g data-v-423bf9ae="" id="5afc88b7-a0f9-4769-a586-a4f5c38d513f" fill="black" transform="matrix(6.036216979508284,0,0,6.036216979508284,108.62268369426499,-15.211266196392017)"><path d="M5.12 8.64L5.12 7.15L10.00 7.15L10.00 12.29L8.72 12.29L8.57 11.23L8.57 11.23Q7.94 11.86 7.15 12.16L7.15 12.16L7.15 12.16Q6.37 12.46 5.31 12.46L5.31 12.46L5.31 12.46Q3.02 12.46 1.82 11.23L1.82 11.23L1.82 11.23Q0.62 10.01 0.62 7.49L0.62 7.49L0.62 7.49Q0.62 5.00 1.88 3.76L1.88 3.76L1.88 3.76Q3.15 2.52 5.52 2.52L5.52 2.52L5.52 2.52Q6.78 2.52 7.79 2.90L7.79 2.90L7.79 2.90Q8.81 3.29 9.40 4.06L9.40 4.06L9.40 4.06Q10.00 4.83 10.00 5.96L10.00 5.96L8.15 5.96L8.15 5.96Q8.15 5.05 7.41 4.54L7.41 4.54L7.41 4.54Q6.66 4.03 5.56 4.03L5.56 4.03L5.56 4.03Q3.99 4.03 3.22 4.86L3.22 4.86L3.22 4.86Q2.45 5.68 2.45 7.35L2.45 7.35L2.45 7.63L2.45 7.63Q2.46 9.35 3.19 10.15L3.19 10.15L3.19 10.15Q3.91 10.95 5.39 10.95L5.39 10.95L5.39 10.95Q6.71 10.95 7.46 10.35L7.46 10.35L7.46 10.35Q8.20 9.74 8.20 8.65L8.20 8.65L8.20 8.64L5.12 8.64ZM11.87 12.29L11.87 4.93L13.26 4.93L13.41 6.09L13.51 6.09L13.51 6.09Q14.01 4.76 15.16 4.76L15.16 4.76L15.16 4.76Q15.41 4.76 15.61 4.81L15.61 4.81L15.61 4.81Q15.81 4.86 15.86 4.89L15.86 4.89L15.86 6.47L15.33 6.47L15.33 6.47Q13.55 6.47 13.55 8.46L13.55 8.46L13.55 12.29L11.87 12.29ZM20.22 12.46L20.22 12.46Q18.40 12.46 17.49 11.52L17.49 11.52L17.49 11.52Q16.59 10.58 16.59 8.61L16.59 8.61L16.59 8.61Q16.59 6.64 17.49 5.70L17.49 5.70L17.49 5.70Q18.40 4.76 20.22 4.76L20.22 4.76L20.22 4.76Q22.04 4.76 22.94 5.70L22.94 5.70L22.94 5.70Q23.84 6.64 23.84 8.61L23.84 8.61L23.84 8.61Q23.84 10.58 22.94 11.52L22.94 11.52L22.94 11.52Q22.04 12.46 20.22 12.46L20.22 12.46ZM20.22 11.09L20.22 11.09Q21.21 11.09 21.66 10.51L21.66 10.51L21.66 10.51Q22.11 9.93 22.11 8.71L22.11 8.71L22.11 8.51L22.11 8.51Q22.11 7.29 21.66 6.71L21.66 6.71L21.66 6.71Q21.21 6.13 20.22 6.13L20.22 6.13L20.22 6.13Q19.21 6.13 18.77 6.71L18.77 6.71L18.77 6.71Q18.33 7.29 18.33 8.51L18.33 8.51L18.33 8.71L18.33 8.71Q18.33 9.93 18.77 10.51L18.77 10.51L18.77 10.51Q19.21 11.09 20.22 11.09L20.22 11.09ZM28.29 12.46L28.29 12.46Q26.56 12.46 25.72 11.52L25.72 11.52L25.72 11.52Q24.88 10.58 24.88 8.61L24.88 8.61L24.88 8.61Q24.88 6.64 25.72 5.70L25.72 5.70L25.72 5.70Q26.57 4.76 28.29 4.76L28.29 4.76L28.29 4.76Q29.79 4.76 30.60 5.50L30.60 5.50L30.60 5.50Q31.42 6.24 31.42 7.69L31.42 7.69L29.71 7.69L29.71 7.69Q29.71 6.90 29.36 6.51L29.36 6.51L29.36 6.51Q29.01 6.12 28.27 6.12L28.27 6.12L28.27 6.12Q27.40 6.12 26.99 6.71L26.99 6.71L26.99 6.71Q26.59 7.31 26.59 8.54L26.59 8.54L26.59 8.71L26.59 8.71Q26.59 9.94 27.00 10.52L27.00 10.52L27.00 10.52Q27.41 11.10 28.34 11.10L28.34 11.10L28.34 11.10Q29.05 11.10 29.42 10.70L29.42 10.70L29.42 10.70Q29.79 10.29 29.79 9.53L29.79 9.53L31.42 9.53L31.42 9.53Q31.42 10.92 30.60 11.69L30.60 11.69L30.60 11.69Q29.78 12.46 28.29 12.46L28.29 12.46ZM35.92 12.46L35.92 12.46Q34.13 12.46 33.26 11.52L33.26 11.52L33.26 11.52Q32.40 10.58 32.40 8.61L32.40 8.61L32.40 8.61Q32.40 6.64 33.27 5.70L33.27 5.70L33.27 5.70Q34.15 4.76 35.92 4.76L35.92 4.76L35.92 4.76Q37.55 4.76 38.35 5.67L38.35 5.67L38.35 5.67Q39.16 6.58 39.16 8.51L39.16 8.51L39.16 9.02L34.10 9.02L34.10 9.02Q34.15 10.11 34.57 10.62L34.57 10.62L34.57 10.62Q35 11.13 35.94 11.13L35.94 11.13L35.94 11.13Q36.64 11.13 37.07 10.77L37.07 10.77L37.07 10.77Q37.51 10.42 37.51 9.72L37.51 9.72L39.16 9.72L39.16 9.72Q39.16 11.07 38.26 11.77L38.26 11.77L38.26 11.77Q37.37 12.46 35.92 12.46L35.92 12.46ZM34.13 7.83L37.41 7.83L37.41 7.83Q37.41 6.09 35.92 6.09L35.92 6.09L35.92 6.09Q35.08 6.09 34.66 6.52L34.66 6.52L34.66 6.52Q34.23 6.94 34.13 7.83L34.13 7.83ZM40.64 12.29L40.64 4.93L42.03 4.93L42.18 6.09L42.28 6.09L42.28 6.09Q42.78 4.76 43.93 4.76L43.93 4.76L43.93 4.76Q44.18 4.76 44.38 4.81L44.38 4.81L44.38 4.81Q44.58 4.86 44.63 4.89L44.63 4.89L44.63 6.47L44.10 6.47L44.10 6.47Q42.32 6.47 42.32 8.46L42.32 8.46L42.32 12.29L40.64 12.29ZM47.54 12.29L44.91 2.69L46.82 2.69L48.40 8.90L48.40 8.90Q48.45 9.14 48.55 9.63L48.55 9.63L48.55 9.63Q48.64 10.12 48.66 10.29L48.66 10.29L48.73 10.29L48.73 10.29Q48.76 10.12 48.83 9.69L48.83 9.69L48.83 9.69Q48.90 9.25 48.97 8.90L48.97 8.90L50.41 2.69L52.68 2.69L54.12 8.90L54.12 8.90Q54.21 9.30 54.28 9.72L54.28 9.72L54.28 9.72Q54.35 10.14 54.38 10.29L54.38 10.29L54.45 10.29L54.45 10.29Q54.47 10.14 54.56 9.65L54.56 9.65L54.56 9.65Q54.66 9.17 54.73 8.90L54.73 8.90L56.29 2.69L57.99 2.69L55.36 12.29L53.28 12.29L51.73 5.96L51.73 5.96Q51.65 5.63 51.57 5.16L51.57 5.16L51.57 5.16Q51.49 4.69 51.46 4.54L51.46 4.54L51.41 4.54L51.41 4.54Q51.38 4.69 51.31 5.12L51.31 5.12L51.31 5.12Q51.24 5.56 51.16 5.96L51.16 5.96L49.62 12.29L47.54 12.29ZM60.83 12.46L60.83 12.46Q59.93 12.46 59.21 12.02L59.21 12.02L59.21 12.02Q58.49 11.58 58.49 10.39L58.49 10.39L58.49 10.39Q58.49 8.97 59.70 8.40L59.70 8.40L59.70 8.40Q60.90 7.83 63.11 7.83L63.11 7.83L63.11 7.21L63.11 7.21Q63.11 6.68 62.84 6.38L62.84 6.38L62.84 6.38Q62.57 6.09 61.85 6.09L61.85 6.09L61.85 6.09Q61.11 6.09 60.80 6.33L60.80 6.33L60.80 6.33Q60.49 6.57 60.49 6.92L60.49 6.92L60.49 7.11L58.87 7.11L58.87 7.11Q58.86 7.03 58.86 6.80L58.86 6.80L58.86 6.80Q58.86 5.85 59.67 5.31L59.67 5.31L59.67 5.31Q60.49 4.76 61.85 4.76L61.85 4.76L61.85 4.76Q63.32 4.76 64.06 5.36L64.06 5.36L64.06 5.36Q64.79 5.96 64.79 7.08L64.79 7.08L64.79 10.60L64.79 10.60Q64.79 10.85 64.93 10.97L64.93 10.97L64.93 10.97Q65.07 11.09 65.28 11.09L65.28 11.09L65.73 11.09L65.73 12.24L65.73 12.24Q65.28 12.45 64.68 12.45L64.68 12.45L64.68 12.45Q64.13 12.45 63.77 12.18L63.77 12.18L63.77 12.18Q63.41 11.91 63.28 11.45L63.28 11.45L63.18 11.45L63.18 11.45Q62.36 12.46 60.83 12.46L60.83 12.46ZM61.33 11.12L61.33 11.12Q62.16 11.12 62.64 10.64L62.64 10.64L62.64 10.64Q63.11 10.16 63.11 9.35L63.11 9.35L63.11 9.02L63.11 9.02Q61.75 9.02 60.98 9.28L60.98 9.28L60.98 9.28Q60.21 9.53 60.21 10.22L60.21 10.22L60.21 10.22Q60.21 11.12 61.33 11.12L61.33 11.12ZM68.71 12.29L65.98 4.93L67.75 4.93L68.95 8.27L68.95 8.27Q69.10 8.68 69.32 9.46L69.32 9.46L69.32 9.46Q69.54 10.25 69.61 10.51L69.61 10.51L69.68 10.51L69.68 10.51Q69.73 10.26 69.94 9.50L69.94 9.50L69.94 9.50Q70.15 8.74 70.32 8.27L70.32 8.27L71.51 4.93L73.21 4.93L70.48 12.29L68.71 12.29ZM77.41 12.46L77.41 12.46Q75.61 12.46 74.75 11.52L74.75 11.52L74.75 11.52Q73.88 10.58 73.88 8.61L73.88 8.61L73.88 8.61Q73.88 6.64 74.75 5.70L74.75 5.70L74.75 5.70Q75.63 4.76 77.41 4.76L77.41 4.76L77.41 4.76Q79.03 4.76 79.83 5.67L79.83 5.67L79.83 5.67Q80.64 6.58 80.64 8.51L80.64 8.51L80.64 9.02L75.59 9.02L75.59 9.02Q75.63 10.11 76.05 10.62L76.05 10.62L76.05 10.62Q76.48 11.13 77.42 11.13L77.42 11.13L77.42 11.13Q78.12 11.13 78.55 10.77L78.55 10.77L78.55 10.77Q78.99 10.42 78.99 9.72L78.99 9.72L80.64 9.72L80.64 9.72Q80.64 11.07 79.74 11.77L79.74 11.77L79.74 11.77Q78.85 12.46 77.41 12.46L77.41 12.46ZM75.61 7.83L78.89 7.83L78.89 7.83Q78.89 6.09 77.41 6.09L77.41 6.09L77.41 6.09Q76.57 6.09 76.14 6.52L76.14 6.52L76.14 6.52Q75.71 6.94 75.61 7.83L75.61 7.83Z"></path></g><!----><g data-v-423bf9ae="" id="09bfbdb4-a7be-427a-b48f-c06efa273586" transform="matrix(1.5393819298974212,0,0,1.5393819298974212,-2.260690017071205,-4.906715039884233)" stroke="none" fill="black"><g data-name="stock expand"><path d="M8 18a1 1 0 0 0-1 1v.5a8.5 8.5 0 0 0 17 0V19a1 1 0 0 0-1-1zm7.5 8a6.508 6.508 0 0 1-6.481-6h12.962a6.508 6.508 0 0 1-6.481 6z"></path><path d="M2 50a12.013 12.013 0 0 0 12 12 11.87 11.87 0 0 0 5.424-1.3A3.192 3.192 0 0 0 22 62h.017l6.811-.034A.962.962 0 0 0 29 62a.948.948 0 0 0 .176-.036l21.587-.107a4.974 4.974 0 0 0 4.916-4.312l4.843 2.631a1 1 0 0 0 .956-1.758l-3.434-1.865 2.685-.243a1 1 0 0 0-.18-1.993l-2.687.245 3.043-2.454a1 1 0 1 0-1.256-1.556l-4.191 3.378a4.958 4.958 0 0 0-5.93-4.119l-.482.1c.136-.388.266-.778.375-1.175l4.543-16.469A.992.992 0 0 0 54 32a2 2 0 0 0-2-2h-1V17a4.967 4.967 0 0 0-1.463-3.534A4.967 4.967 0 0 0 46 12h-2.586l3.293-3.293a1 1 0 1 0-1.414-1.414L42 10.586V5a1 1 0 0 0-2 0v5.586l-3.293-3.293a1 1 0 1 0-1.414 1.414L38.586 12H36a4.967 4.967 0 0 0-3.534 1.463A4.967 4.967 0 0 0 31 17v13H12a2 2 0 0 0-2 2 .992.992 0 0 0 .036.266l1.645 5.963a11.88 11.88 0 0 0-3 1.033l-4.974-4.969a1 1 0 0 0-1.414 1.414l1.856 1.856-1.465.489a1 1 0 1 0 .632 1.9l2.414-.8 1.189 1.189A11.978 11.978 0 0 0 2 50zm47.935 1.77a3 3 0 0 1 3.595 2.665l.2 2.151a3 3 0 0 1-2.972 3.271L46 59.881V57a1 1 0 0 0-2 0v2.891l-6 .03V57a1 1 0 0 0-2 0v2.931l-6 .029V58a1 1 0 0 0-2 0v1.97l-5.989.03H22a1.21 1.21 0 0 1-.245-2.394L32 55.485V56a1 1 0 0 0 2 0v-.929l6-1.243V55a1 1 0 0 0 2 0v-1.587zM49 17v3.586l-.5.5-2.586-2.586 2.794-2.794A2.987 2.987 0 0 1 49 17zm-9.414 13h-5.172L37 27.414zm-4.672-7.5l2.586-2.586L39.586 22 37 24.586zm3.5 3.5L41 23.414 43.586 26 41 28.586zm4-4l2.086-2.086 2.586 2.586L45 24.586zM45 27.414L47.586 30h-5.172zM46.414 26l2.086-2.086.5.5v4.172zm-3-12H46a2.987 2.987 0 0 1 1.294.292L44.5 17.086 42.414 15zM41 16.414l2.086 2.086L41 20.586 38.914 18.5zM36 14h2.586l1 1-2.086 2.086-2.794-2.794A2.987 2.987 0 0 1 36 14zm-3 3a2.987 2.987 0 0 1 .292-1.294l2.794 2.794-2.586 2.586-.5-.5zm0 7.414l.5-.5L35.586 26 33 28.586zM23 32h12v6.462A2.423 2.423 0 0 1 33 40a2.432 2.432 0 0 1-2-1.524V36.34a3 3 0 1 0-6 0 1.008 1.008 0 1 1-2 0zm-2 0v4.34a3 3 0 1 0 6 0 1.008 1.008 0 1 1 2 0v2.136a4.032 4.032 0 0 0 8 0V32h14.963l-1.1 4H40a1 1 0 0 0 0 2h10.308l-.552 2H42a1 1 0 0 0 0 2h7.2l-.551 2H44a1 1 0 0 0 0 2h4.1l-.608 2.2a16.1 16.1 0 0 1-.786 2.192L24.947 54.9A11.99 11.99 0 0 0 14 38c-.122 0-.24.015-.361.018a.944.944 0 0 0-.02-.284L12.037 32zm-7 8a9.991 9.991 0 0 1 8.388 15.433l-1.034.214a3.2 3.2 0 0 0-2.546 3.19.955.955 0 0 0-.263.073A9.883 9.883 0 0 1 14 60a10 10 0 0 1 0-20z"></path><path d="M10 49h2v2h-2zM10 55h2v2h-2zM10 43h2v2h-2zM7 46h2v2H7zM7 52h2v2H7zM26.827 15.113a3.47 3.47 0 0 0 .732-4.305l-1.938-3.482a2.984 2.984 0 0 0-2.485-1.538 3.165 3.165 0 0 0-.77.067l.76-1.32-1.732-1-1.386 2.407-1.736-1.954-1.495 1.329 1.737 1.954-2.551 1.092.788 1.839 1.4-.6a3.006 3.006 0 0 0 1.083 3.4l3.232 2.334a3.463 3.463 0 0 0 2.027.664 3.555 3.555 0 0 0 2.334-.887zM20.4 11.384a1 1 0 0 1 .124-1.7l1.007-.527.641-.938A.984.984 0 0 1 23 7.785h.044a.986.986 0 0 1 .828.513l1.939 3.482a1.485 1.485 0 0 1-.311 1.84 1.48 1.48 0 0 1-1.862.094z"></path></g></g><!----><g data-v-423bf9ae="" id="26ca4454-511b-4b48-9543-c7682d46bf33" fill="black" transform="matrix(1.890944297831029,0,0,1.890944297831029,106.65446853859328,50.94237590658295)"><path d="M4.19 6.69L4.19 6.69L4.19 6.69Q3.63 6.69 3.33 6.38L3.33 6.38L3.33 6.38Q3.02 6.06 3.02 5.61L3.02 5.61L3.02 5.61Q3.02 5.50 3.06 5.35L3.06 5.35L3.06 5.35Q3.09 5.19 3.15 5.08L3.15 5.08L3.15 5.08Q3.33 5.17 3.69 5.20L3.69 5.20L3.69 5.20Q4.05 5.24 4.52 5.24L4.52 5.24L4.52 5.24Q5.24 5.24 6.14 5.17L6.14 5.17L6.14 5.17Q7.04 5.11 7.87 5.04L7.87 5.04L7.87 5.04Q8.69 4.97 9.32 4.91L9.32 4.91L9.32 4.91Q9.95 4.84 10.14 4.84L10.14 4.84L10.14 4.84Q10.65 4.84 10.88 5.23L10.88 5.23L10.88 5.23Q11.12 5.61 11.23 6.26L11.23 6.26L11.23 6.26Q10.86 6.23 10.51 6.21L10.51 6.21L10.51 6.21Q10.15 6.19 9.90 6.19L9.90 6.19L9.90 6.19Q9.45 6.19 9.00 6.22L9.00 6.22L9.00 6.22Q8.54 6.24 8.08 6.30L8.08 6.30L8.08 6.30Q7.88 6.71 7.64 7.26L7.64 7.26L7.64 7.26Q7.41 7.81 7.17 8.41L7.17 8.41L7.17 8.41Q6.94 9.02 6.73 9.61L6.73 9.61L6.73 9.61Q6.52 10.21 6.37 10.68L6.37 10.68L6.37 10.68Q6.06 11.61 5.83 12.39L5.83 12.39L5.83 12.39Q5.60 13.17 5.42 13.85L5.42 13.85L5.42 13.85Q5.25 14.53 5.12 15.15L5.12 15.15L5.12 15.15Q5.00 15.76 4.90 16.35L4.90 16.35L4.90 16.35Q3.96 16.21 3.33 15.18L3.33 15.18L3.33 15.18Q3.44 14.74 3.60 14.23L3.60 14.23L3.60 14.23Q3.77 13.72 3.98 13.07L3.98 13.07L3.98 13.07Q4.20 12.42 4.49 11.59L4.49 11.59L4.49 11.59Q4.79 10.77 5.17 9.72L5.17 9.72L5.17 9.72Q5.31 9.32 5.46 8.90L5.46 8.90L5.46 8.90Q5.61 8.47 5.76 8.05L5.76 8.05L5.76 8.05Q5.91 7.63 6.03 7.24L6.03 7.24L6.03 7.24Q6.15 6.85 6.23 6.52L6.23 6.52L6.23 6.52Q5.64 6.59 5.12 6.64L5.12 6.64L5.12 6.64Q4.59 6.69 4.19 6.69ZM16.62 16.24L16.62 16.24L16.62 16.24Q15.95 16.04 15.69 15.85L15.69 15.85L15.69 15.85Q15.43 15.65 15.43 15.36L15.43 15.36L15.43 15.36Q15.43 15.13 15.55 14.73L15.55 14.73L15.55 14.73Q15.68 14.32 15.92 13.77L15.92 13.77L15.92 13.77Q16.17 13.22 16.51 12.54L16.51 12.54L16.51 12.54Q16.86 11.87 17.29 11.10L17.29 11.10L17.29 11.10Q16.93 11.09 16.64 11.08L16.64 11.08L16.64 11.08Q16.35 11.07 16.17 11.07L16.17 11.07L16.17 11.07Q16.25 10.86 16.65 10.71L16.65 10.71L16.65 10.71Q17.04 10.56 17.68 10.44L17.68 10.44L17.68 10.44Q18.23 9.53 18.85 8.71L18.85 8.71L18.85 8.71Q19.47 7.88 20.10 7.19L20.10 7.19L20.10 7.19Q20.73 6.50 21.36 5.97L21.36 5.97L21.36 5.97Q21.99 5.45 22.57 5.14L22.57 5.14L22.57 5.14Q22.58 5.04 22.59 4.97L22.59 4.97L22.59 4.97Q22.60 4.90 22.60 4.87L22.60 4.87L22.60 4.87Q22.79 4.87 23.12 4.97L23.12 4.97L23.12 4.97Q23.45 5.07 23.77 5.21L23.77 5.21L23.77 5.21Q24.08 5.35 24.32 5.49L24.32 5.49L24.32 5.49Q24.57 5.64 24.60 5.74L24.60 5.74L24.60 5.74Q24.14 6.55 23.69 8.17L23.69 8.17L23.69 8.17Q23.24 9.79 22.95 12.04L22.95 12.04L22.95 12.04Q22.88 12.60 22.83 13.31L22.83 13.31L22.83 13.31Q22.78 14.03 22.78 14.91L22.78 14.91L22.78 14.91Q22.78 15.22 22.78 15.54L22.78 15.54L22.78 15.54Q22.78 15.86 22.81 16.21L22.81 16.21L22.81 16.21Q22.78 16.23 22.75 16.23L22.75 16.23L22.75 16.23Q22.72 16.23 22.64 16.23L22.64 16.23L22.64 16.23Q22.44 16.23 22.18 16.16L22.18 16.16L22.18 16.16Q21.92 16.10 21.68 16.01L21.68 16.01L21.68 16.01Q21.43 15.92 21.26 15.81L21.26 15.81L21.26 15.81Q21.08 15.69 21.04 15.61L21.04 15.61L21.04 15.61Q21.03 15.43 21.03 15.25L21.03 15.25L21.03 15.25Q21.03 15.08 21.03 14.88L21.03 14.88L21.03 14.88Q21.03 14.01 21.09 13.12L21.09 13.12L21.09 13.12Q21.15 12.22 21.31 11.27L21.31 11.27L21.31 11.27Q21.11 11.26 20.79 11.23L20.79 11.23L20.79 11.23Q20.47 11.21 20.07 11.20L20.07 11.20L20.07 11.20Q19.67 11.19 19.21 11.16L19.21 11.16L19.21 11.16Q18.76 11.14 18.33 11.13L18.33 11.13L18.33 11.13Q17.99 11.76 17.70 12.38L17.70 12.38L17.70 12.38Q17.40 13.01 17.19 13.64L17.19 13.64L17.19 13.64Q16.95 14.31 16.81 14.98L16.81 14.98L16.81 14.98Q16.66 15.65 16.62 16.24ZM22.02 7.83L22.02 7.83L22.02 7.83Q22.08 7.63 22.15 7.29L22.15 7.29L22.15 7.29Q22.23 6.94 22.30 6.57L22.30 6.57L22.30 6.57Q21.95 6.69 21.52 7.03L21.52 7.03L21.52 7.03Q21.10 7.36 20.64 7.86L20.64 7.86L20.64 7.86Q20.19 8.36 19.72 8.98L19.72 8.98L19.72 8.98Q19.25 9.60 18.82 10.30L18.82 10.30L18.82 10.30Q19.99 10.21 21.49 10.18L21.49 10.18L21.49 10.18Q21.60 9.59 21.73 9.01L21.73 9.01L21.73 9.01Q21.87 8.43 22.02 7.83ZM41.01 5.74L41.01 5.74L41.01 5.74Q41.05 5.98 41.07 6.07L41.07 6.07L41.07 6.07Q41.09 6.16 41.09 6.31L41.09 6.31L41.09 6.31Q41.09 6.78 40.89 7.18L40.89 7.18L40.89 7.18Q40.68 7.57 40.33 7.74L40.33 7.74L40.33 7.74Q40.05 7.36 39.65 7.09L39.65 7.09L39.65 7.09Q39.24 6.82 38.76 6.64L38.76 6.64L38.76 6.64Q38.28 6.47 37.76 6.38L37.76 6.38L37.76 6.38Q37.24 6.30 36.75 6.30L36.75 6.30L36.75 6.30Q36.26 6.30 35.83 6.38L35.83 6.38L35.83 6.38Q35.41 6.45 35.08 6.59L35.08 6.59L35.08 6.59Q34.75 6.72 34.56 6.92L34.56 6.92L34.56 6.92Q34.37 7.11 34.37 7.36L34.37 7.36L34.37 7.36Q34.41 7.67 34.75 7.99L34.75 7.99L34.75 7.99Q35.08 8.30 35.57 8.60L35.57 8.60L35.57 8.60Q36.06 8.90 36.66 9.20L36.66 9.20L36.66 9.20Q37.25 9.49 37.83 9.76L37.83 9.76L37.83 9.76Q38.54 10.09 39.06 10.38L39.06 10.38L39.06 10.38Q39.58 10.67 39.91 11.01L39.91 11.01L39.91 11.01Q40.25 11.35 40.42 11.79L40.42 11.79L40.42 11.79Q40.59 12.22 40.59 12.84L40.59 12.84L40.59 12.84Q40.59 13.55 40.35 14.18L40.35 14.18L40.35 14.18Q40.11 14.80 39.66 15.26L39.66 15.26L39.66 15.26Q39.20 15.72 38.56 15.98L38.56 15.98L38.56 15.98Q37.91 16.24 37.11 16.24L37.11 16.24L37.11 16.24Q36.33 16.24 35.42 16.00L35.42 16.00L35.42 16.00Q34.51 15.76 33.72 15.35L33.72 15.35L33.72 15.35Q32.93 14.94 32.40 14.40L32.40 14.40L32.40 14.40Q31.88 13.86 31.88 13.26L31.88 13.26L31.88 13.26Q31.88 12.98 32.04 12.54L32.04 12.54L32.04 12.54Q32.20 12.11 32.62 11.63L32.62 11.63L32.62 11.63Q32.66 12.05 33.07 12.63L33.07 12.63L33.07 12.63Q33.49 13.20 34.31 13.69L34.31 13.69L34.31 13.69Q35.08 14.14 35.90 14.34L35.90 14.34L35.90 14.34Q36.72 14.55 37.44 14.55L37.44 14.55L37.44 14.55Q38.22 14.55 38.71 14.35L38.71 14.35L38.71 14.35Q39.20 14.15 39.48 13.88L39.48 13.88L39.48 13.88Q39.76 13.61 39.87 13.33L39.87 13.33L39.87 13.33Q39.98 13.05 40.00 12.88L40.00 12.88L40.00 12.88Q39.98 12.60 39.74 12.34L39.74 12.34L39.74 12.34Q39.49 12.08 39.08 11.84L39.08 11.84L39.08 11.84Q38.67 11.59 38.12 11.34L38.12 11.34L38.12 11.34Q37.58 11.09 36.99 10.84L36.99 10.84L36.99 10.84Q36.11 10.44 35.47 10.10L35.47 10.10L35.47 10.10Q34.83 9.76 34.42 9.40L34.42 9.40L34.42 9.40Q34.01 9.04 33.82 8.65L33.82 8.65L33.82 8.65Q33.63 8.26 33.63 7.76L33.63 7.76L33.63 7.76Q33.63 6.97 34.10 6.27L34.10 6.27L34.10 6.27Q34.58 5.57 35.48 5.21L35.48 5.21L35.48 5.21Q35.92 5.01 36.44 4.93L36.44 4.93L36.44 4.93Q36.95 4.84 37.44 4.84L37.44 4.84L37.44 4.84Q38.36 4.84 39.24 5.10L39.24 5.10L39.24 5.10Q40.12 5.35 41.01 5.74ZM50.99 6.69L50.99 6.69L50.99 6.69Q50.43 6.69 50.13 6.38L50.13 6.38L50.13 6.38Q49.83 6.06 49.83 5.61L49.83 5.61L49.83 5.61Q49.83 5.50 49.86 5.35L49.86 5.35L49.86 5.35Q49.90 5.19 49.95 5.08L49.95 5.08L49.95 5.08Q50.13 5.17 50.49 5.20L50.49 5.20L50.49 5.20Q50.85 5.24 51.32 5.24L51.32 5.24L51.32 5.24Q52.04 5.24 52.94 5.17L52.94 5.17L52.94 5.17Q53.84 5.11 54.67 5.04L54.67 5.04L54.67 5.04Q55.50 4.97 56.13 4.91L56.13 4.91L56.13 4.91Q56.76 4.84 56.94 4.84L56.94 4.84L56.94 4.84Q57.46 4.84 57.69 5.23L57.69 5.23L57.69 5.23Q57.92 5.61 58.03 6.26L58.03 6.26L58.03 6.26Q57.67 6.23 57.31 6.21L57.31 6.21L57.31 6.21Q56.95 6.19 56.70 6.19L56.70 6.19L56.70 6.19Q56.25 6.19 55.80 6.22L55.80 6.22L55.80 6.22Q55.34 6.24 54.88 6.30L54.88 6.30L54.88 6.30Q54.68 6.71 54.45 7.26L54.45 7.26L54.45 7.26Q54.21 7.81 53.98 8.41L53.98 8.41L53.98 8.41Q53.75 9.02 53.54 9.61L53.54 9.61L53.54 9.61Q53.33 10.21 53.17 10.68L53.17 10.68L53.17 10.68Q52.86 11.61 52.63 12.39L52.63 12.39L52.63 12.39Q52.40 13.17 52.23 13.85L52.23 13.85L52.23 13.85Q52.05 14.53 51.93 15.15L51.93 15.15L51.93 15.15Q51.80 15.76 51.70 16.35L51.70 16.35L51.70 16.35Q50.76 16.21 50.13 15.18L50.13 15.18L50.13 15.18Q50.25 14.74 50.41 14.23L50.41 14.23L50.41 14.23Q50.57 13.72 50.78 13.07L50.78 13.07L50.78 13.07Q51.00 12.42 51.30 11.59L51.30 11.59L51.30 11.59Q51.59 10.77 51.97 9.72L51.97 9.72L51.97 9.72Q52.11 9.32 52.26 8.90L52.26 8.90L52.26 8.90Q52.42 8.47 52.56 8.05L52.56 8.05L52.56 8.05Q52.71 7.63 52.83 7.24L52.83 7.24L52.83 7.24Q52.95 6.85 53.03 6.52L53.03 6.52L53.03 6.52Q52.44 6.59 51.92 6.64L51.92 6.64L51.92 6.64Q51.39 6.69 50.99 6.69ZM69.23 9.21L69.23 9.21L69.23 9.21Q69.69 9.21 69.95 9.46L69.95 9.46L69.95 9.46Q70.21 9.72 70.21 10.16L70.21 10.16L70.21 10.16Q70.21 10.28 70.19 10.39L70.19 10.39L70.19 10.39Q70.17 10.51 70.14 10.60L70.14 10.60L70.14 10.60Q69.96 10.57 69.73 10.55L69.73 10.55L69.73 10.55Q69.51 10.53 69.20 10.53L69.20 10.53L69.20 10.53Q68.60 10.53 67.98 10.63L67.98 10.63L67.98 10.63Q67.37 10.74 66.81 10.81L66.81 10.81L66.81 10.81Q66.49 11.55 66.22 12.24L66.22 12.24L66.22 12.24Q65.95 12.94 65.77 13.51L65.77 13.51L65.77 13.51Q65.58 14.08 65.47 14.50L65.47 14.50L65.47 14.50Q65.37 14.92 65.35 15.13L65.35 15.13L65.35 15.13Q66.49 14.90 67.64 14.73L67.64 14.73L67.64 14.73Q68.80 14.56 70.07 14.48L70.07 14.48L70.07 14.48Q70.22 14.71 70.33 14.99L70.33 14.99L70.33 14.99Q70.43 15.27 70.43 15.60L70.43 15.60L70.43 15.60Q70.43 15.68 70.43 15.78L70.43 15.78L70.43 15.78Q70.43 15.88 70.41 15.97L70.41 15.97L70.41 15.97Q70.01 15.96 69.58 15.95L69.58 15.95L69.58 15.95Q69.15 15.95 68.45 15.95L68.45 15.95L68.45 15.95Q67.98 15.95 67.57 15.97L67.57 15.97L67.57 15.97Q67.16 15.99 66.74 16.03L66.74 16.03L66.74 16.03Q66.32 16.07 65.85 16.14L65.85 16.14L65.85 16.14Q65.38 16.21 64.79 16.31L64.79 16.31L64.79 16.31Q64.15 16.06 63.55 15.08L63.55 15.08L63.55 15.08Q63.78 14.57 64.21 13.54L64.21 13.54L64.21 13.54Q64.64 12.52 65.30 10.79L65.30 10.79L65.30 10.79Q64.67 10.60 64.47 10.09L64.47 10.09L64.47 10.09Q64.54 10.02 64.88 9.92L64.88 9.92L64.88 9.92Q65.21 9.81 65.70 9.70L65.70 9.70L65.70 9.70Q65.91 9.16 66.06 8.75L66.06 8.75L66.06 8.75Q66.21 8.34 66.32 7.99L66.32 7.99L66.32 7.99Q66.43 7.63 66.52 7.29L66.52 7.29L66.52 7.29Q66.61 6.94 66.70 6.54L66.70 6.54L66.70 6.54Q66.21 6.51 65.93 6.27L65.93 6.27L65.93 6.27Q65.65 6.02 65.65 5.63L65.65 5.63L65.65 5.63Q65.65 5.52 65.68 5.36L65.68 5.36L65.68 5.36Q65.72 5.21 65.76 5.10L65.76 5.10L65.76 5.10Q66.04 5.14 66.30 5.15L66.30 5.15L66.30 5.15Q66.56 5.17 66.98 5.17L66.98 5.17L66.98 5.17Q67.86 5.17 68.63 5.12L68.63 5.12L68.63 5.12Q69.40 5.07 70.02 5.01L70.02 5.01L70.02 5.01Q70.64 4.96 71.09 4.91L71.09 4.91L71.09 4.91Q71.54 4.86 71.78 4.86L71.78 4.86L71.78 4.86Q72.10 4.86 72.35 5.19L72.35 5.19L72.35 5.19Q72.60 5.53 72.73 6.15L72.73 6.15L72.73 6.15Q72.30 6.10 72.02 6.09L72.02 6.09L72.02 6.09Q71.75 6.08 71.54 6.08L71.54 6.08L71.54 6.08Q70.77 6.08 70.13 6.15L70.13 6.15L70.13 6.15Q69.50 6.23 68.91 6.31L68.91 6.31L68.91 6.31Q68.82 6.44 68.72 6.64L68.72 6.64L68.72 6.64Q68.61 6.83 68.45 7.18L68.45 7.18L68.45 7.18Q68.28 7.53 68.03 8.06L68.03 8.06L68.03 8.06Q67.79 8.60 67.44 9.39L67.44 9.39L67.44 9.39Q67.97 9.31 68.44 9.26L68.44 9.26L68.44 9.26Q68.91 9.21 69.23 9.21ZM92.08 6.69L92.08 6.69L92.08 6.69Q91.52 6.69 91.22 6.38L91.22 6.38L91.22 6.38Q90.92 6.06 90.92 5.61L90.92 5.61L90.92 5.61Q90.92 5.50 90.95 5.35L90.95 5.35L90.95 5.35Q90.99 5.19 91.04 5.08L91.04 5.08L91.04 5.08Q91.22 5.17 91.58 5.20L91.58 5.20L91.58 5.20Q91.94 5.24 92.41 5.24L92.41 5.24L92.41 5.24Q93.13 5.24 94.03 5.17L94.03 5.17L94.03 5.17Q94.93 5.11 95.76 5.04L95.76 5.04L95.76 5.04Q96.59 4.97 97.22 4.91L97.22 4.91L97.22 4.91Q97.85 4.84 98.03 4.84L98.03 4.84L98.03 4.84Q98.55 4.84 98.78 5.23L98.78 5.23L98.78 5.23Q99.01 5.61 99.12 6.26L99.12 6.26L99.12 6.26Q98.76 6.23 98.40 6.21L98.40 6.21L98.40 6.21Q98.04 6.19 97.79 6.19L97.79 6.19L97.79 6.19Q97.34 6.19 96.89 6.22L96.89 6.22L96.89 6.22Q96.43 6.24 95.97 6.30L95.97 6.30L95.97 6.30Q95.77 6.71 95.54 7.26L95.54 7.26L95.54 7.26Q95.30 7.81 95.07 8.41L95.07 8.41L95.07 8.41Q94.84 9.02 94.63 9.61L94.63 9.61L94.63 9.61Q94.42 10.21 94.26 10.68L94.26 10.68L94.26 10.68Q93.95 11.61 93.72 12.39L93.72 12.39L93.72 12.39Q93.49 13.17 93.32 13.85L93.32 13.85L93.32 13.85Q93.14 14.53 93.02 15.15L93.02 15.15L93.02 15.15Q92.89 15.76 92.79 16.35L92.79 16.35L92.79 16.35Q91.85 16.21 91.22 15.18L91.22 15.18L91.22 15.18Q91.34 14.74 91.50 14.23L91.50 14.23L91.50 14.23Q91.66 13.72 91.88 13.07L91.88 13.07L91.88 13.07Q92.09 12.42 92.39 11.59L92.39 11.59L92.39 11.59Q92.68 10.77 93.06 9.72L93.06 9.72L93.06 9.72Q93.20 9.32 93.35 8.90L93.35 8.90L93.35 8.90Q93.51 8.47 93.65 8.05L93.65 8.05L93.65 8.05Q93.80 7.63 93.92 7.24L93.92 7.24L93.92 7.24Q94.04 6.85 94.12 6.52L94.12 6.52L94.12 6.52Q93.53 6.59 93.01 6.64L93.01 6.64L93.01 6.64Q92.48 6.69 92.08 6.69ZM110.00 14.36L110.00 14.36L110.00 14.36Q110.00 13.78 110.19 12.85L110.19 12.85L110.19 12.85Q110.39 11.93 110.71 10.88L110.71 10.88L110.71 10.88Q109.79 10.95 108.86 11.06L108.86 11.06L108.86 11.06Q107.93 11.17 107.24 11.19L107.24 11.19L107.24 11.19Q106.61 12.66 106.24 13.89L106.24 13.89L106.24 13.89Q105.87 15.13 105.66 16.31L105.66 16.31L105.66 16.31Q105.13 16.18 104.78 15.87L104.78 15.87L104.78 15.87Q104.43 15.55 104.13 15.08L104.13 15.08L104.13 15.08Q104.24 14.85 104.39 14.50L104.39 14.50L104.39 14.50Q104.54 14.15 104.74 13.66L104.74 13.66L104.74 13.66Q104.94 13.16 105.20 12.50L105.20 12.50L105.20 12.50Q105.46 11.83 105.80 10.95L105.80 10.95L105.80 10.95Q105.34 10.75 105.18 10.40L105.18 10.40L105.18 10.40Q105.25 10.35 105.50 10.28L105.50 10.28L105.50 10.28Q105.74 10.22 106.11 10.15L106.11 10.15L106.29 9.70L106.29 9.70Q106.58 8.95 106.77 8.43L106.77 8.43L106.77 8.43Q106.96 7.91 107.09 7.41L107.09 7.41L107.09 7.41Q107.23 6.92 107.34 6.31L107.34 6.31L107.34 6.31Q107.46 5.71 107.63 4.79L107.63 4.79L107.63 4.79Q108.22 4.90 108.70 5.31L108.70 5.31L108.70 5.31Q109.19 5.71 109.54 6.29L109.54 6.29L109.54 6.29Q109.41 6.45 109.23 6.79L109.23 6.79L109.23 6.79Q109.05 7.13 108.83 7.59L108.83 7.59L108.83 7.59Q108.61 8.06 108.36 8.64L108.36 8.64L108.36 8.64Q108.11 9.23 107.81 9.87L107.81 9.87L107.81 9.87Q108.68 9.76 109.57 9.66L109.57 9.66L109.57 9.66Q110.46 9.56 111.15 9.52L111.15 9.52L111.15 9.52Q111.40 8.79 111.67 8.10L111.67 8.10L111.67 8.10Q111.94 7.41 112.21 6.83L112.21 6.83L112.21 6.83Q112.48 6.26 112.72 5.82L112.72 5.82L112.72 5.82Q112.97 5.39 113.16 5.18L113.16 5.18L113.16 5.18Q113.30 5.19 113.53 5.29L113.53 5.29L113.53 5.29Q113.76 5.38 114.00 5.50L114.00 5.50L114.00 5.50Q114.24 5.63 114.44 5.78L114.44 5.78L114.44 5.78Q114.63 5.92 114.70 6.05L114.70 6.05L114.70 6.05Q114.45 6.29 114.20 6.66L114.20 6.66L114.20 6.66Q113.95 7.04 113.70 7.53L113.70 7.53L113.70 7.53Q113.46 8.02 113.22 8.60L113.22 8.60L113.22 8.60Q112.98 9.17 112.77 9.79L112.77 9.79L112.77 9.79Q113.05 10.04 113.05 10.42L113.05 10.42L113.05 10.42Q113.05 10.68 112.94 10.91L112.94 10.91L112.94 10.91Q112.81 10.88 112.69 10.87L112.69 10.87L112.69 10.87Q112.56 10.86 112.42 10.85L112.42 10.85L112.42 10.85Q112.18 11.61 111.99 12.35L111.99 12.35L111.99 12.35Q111.79 13.09 111.66 13.76L111.66 13.76L111.66 13.76Q111.52 14.43 111.45 14.99L111.45 14.99L111.45 14.99Q111.37 15.55 111.37 15.93L111.37 15.93L111.37 15.93Q111.37 16.07 111.38 16.16L111.38 16.16L111.38 16.16Q111.38 16.24 111.40 16.30L111.40 16.30L111.40 16.30Q111.09 16.28 110.95 16.19L110.95 16.19L110.95 16.19Q110.81 16.10 110.74 16.00L110.74 16.00L110.74 16.00Q110.67 15.89 110.61 15.79L110.61 15.79L110.61 15.79Q110.56 15.68 110.43 15.62L110.43 15.62L110.43 15.62Q110.33 15.58 110.25 15.43L110.25 15.43L110.25 15.43Q110.17 15.27 110.11 15.08L110.11 15.08L110.11 15.08Q110.05 14.88 110.03 14.69L110.03 14.69L110.03 14.69Q110.00 14.49 110.00 14.36ZM126.77 9.21L126.77 9.21L126.77 9.21Q127.23 9.21 127.49 9.46L127.49 9.46L127.49 9.46Q127.75 9.72 127.75 10.16L127.75 10.16L127.75 10.16Q127.75 10.28 127.73 10.39L127.73 10.39L127.73 10.39Q127.71 10.51 127.68 10.60L127.68 10.60L127.68 10.60Q127.50 10.57 127.27 10.55L127.27 10.55L127.27 10.55Q127.05 10.53 126.74 10.53L126.74 10.53L126.74 10.53Q126.14 10.53 125.52 10.63L125.52 10.63L125.52 10.63Q124.91 10.74 124.35 10.81L124.35 10.81L124.35 10.81Q124.03 11.55 123.76 12.24L123.76 12.24L123.76 12.24Q123.49 12.94 123.30 13.51L123.30 13.51L123.30 13.51Q123.12 14.08 123.01 14.50L123.01 14.50L123.01 14.50Q122.91 14.92 122.89 15.13L122.89 15.13L122.89 15.13Q124.03 14.90 125.18 14.73L125.18 14.73L125.18 14.73Q126.34 14.56 127.61 14.48L127.61 14.48L127.61 14.48Q127.76 14.71 127.87 14.99L127.87 14.99L127.87 14.99Q127.97 15.27 127.97 15.60L127.97 15.60L127.97 15.60Q127.97 15.68 127.97 15.78L127.97 15.78L127.97 15.78Q127.97 15.88 127.95 15.97L127.95 15.97L127.95 15.97Q127.55 15.96 127.12 15.95L127.12 15.95L127.12 15.95Q126.69 15.95 125.99 15.95L125.99 15.95L125.99 15.95Q125.52 15.95 125.11 15.97L125.11 15.97L125.11 15.97Q124.70 15.99 124.28 16.03L124.28 16.03L124.28 16.03Q123.86 16.07 123.39 16.14L123.39 16.14L123.39 16.14Q122.92 16.21 122.33 16.31L122.33 16.31L122.33 16.31Q121.69 16.06 121.09 15.08L121.09 15.08L121.09 15.08Q121.32 14.57 121.75 13.54L121.75 13.54L121.75 13.54Q122.18 12.52 122.84 10.79L122.84 10.79L122.84 10.79Q122.21 10.60 122.01 10.09L122.01 10.09L122.01 10.09Q122.08 10.02 122.42 9.92L122.42 9.92L122.42 9.92Q122.75 9.81 123.24 9.70L123.24 9.70L123.24 9.70Q123.45 9.16 123.60 8.75L123.60 8.75L123.60 8.75Q123.75 8.34 123.86 7.99L123.86 7.99L123.86 7.99Q123.97 7.63 124.06 7.29L124.06 7.29L124.06 7.29Q124.15 6.94 124.24 6.54L124.24 6.54L124.24 6.54Q123.75 6.51 123.47 6.27L123.47 6.27L123.47 6.27Q123.19 6.02 123.19 5.63L123.19 5.63L123.19 5.63Q123.19 5.52 123.22 5.36L123.22 5.36L123.22 5.36Q123.26 5.21 123.30 5.10L123.30 5.10L123.30 5.10Q123.58 5.14 123.84 5.15L123.84 5.15L123.84 5.15Q124.10 5.17 124.52 5.17L124.52 5.17L124.52 5.17Q125.40 5.17 126.17 5.12L126.17 5.12L126.17 5.12Q126.94 5.07 127.56 5.01L127.56 5.01L127.56 5.01Q128.18 4.96 128.63 4.91L128.63 4.91L128.63 4.91Q129.08 4.86 129.32 4.86L129.32 4.86L129.32 4.86Q129.64 4.86 129.89 5.19L129.89 5.19L129.89 5.19Q130.14 5.53 130.27 6.15L130.27 6.15L130.27 6.15Q129.84 6.10 129.56 6.09L129.56 6.09L129.56 6.09Q129.29 6.08 129.08 6.08L129.08 6.08L129.08 6.08Q128.31 6.08 127.67 6.15L127.67 6.15L127.67 6.15Q127.04 6.23 126.45 6.31L126.45 6.31L126.45 6.31Q126.36 6.44 126.26 6.64L126.26 6.64L126.26 6.64Q126.15 6.83 125.99 7.18L125.99 7.18L125.99 7.18Q125.82 7.53 125.57 8.06L125.57 8.06L125.57 8.06Q125.33 8.60 124.98 9.39L124.98 9.39L124.98 9.39Q125.51 9.31 125.98 9.26L125.98 9.26L125.98 9.26Q126.45 9.21 126.77 9.21ZM148.64 15.61L148.64 15.61L148.64 15.61Q148.57 15.04 148.53 14.36L148.53 14.36L148.53 14.36Q148.50 13.68 148.50 13.09L148.50 13.09L148.50 13.09Q148.50 12.15 148.56 11.29L148.56 11.29L148.56 11.29Q148.62 10.43 148.71 9.48L148.71 9.48L148.71 9.48Q148.81 8.54 148.92 7.43L148.92 7.43L148.92 7.43Q149.03 6.31 149.11 4.86L149.11 4.86L149.11 4.86Q149.30 4.86 149.64 4.96L149.64 4.96L149.64 4.96Q149.98 5.07 150.33 5.21L150.33 5.21L150.33 5.21Q150.68 5.35 150.95 5.49L150.95 5.49L150.95 5.49Q151.21 5.64 151.26 5.74L151.26 5.74L151.26 5.74Q151.02 6.29 150.83 7.18L150.83 7.18L150.83 7.18Q150.64 8.06 150.51 9.11L150.51 9.11L150.51 9.11Q150.39 10.16 150.32 11.27L150.32 11.27L150.32 11.27Q150.25 12.38 150.25 13.34L150.25 13.34L150.25 13.34Q150.25 13.79 150.26 14.22L150.26 14.22L150.26 14.22Q150.28 14.66 150.30 15.02L150.30 15.02L150.30 15.02Q150.60 14.59 150.98 13.78L150.98 13.78L150.98 13.78Q151.37 12.98 151.78 11.98L151.78 11.98L151.78 11.98Q152.19 10.99 152.61 9.91L152.61 9.91L152.61 9.91Q153.02 8.82 153.37 7.83L153.37 7.83L153.37 7.83Q153.72 6.85 153.96 6.05L153.96 6.05L153.96 6.05Q154.21 5.26 154.31 4.86L154.31 4.86L154.31 4.86Q154.49 4.86 154.85 4.96L154.85 4.96L154.85 4.96Q155.20 5.07 155.55 5.21L155.55 5.21L155.55 5.21Q155.89 5.35 156.16 5.49L156.16 5.49L156.16 5.49Q156.42 5.64 156.45 5.74L156.45 5.74L156.45 5.74Q156.21 6.29 156.02 7.18L156.02 7.18L156.02 7.18Q155.83 8.06 155.71 9.11L155.71 9.11L155.71 9.11Q155.58 10.16 155.51 11.27L155.51 11.27L155.51 11.27Q155.44 12.38 155.44 13.34L155.44 13.34L155.44 13.34Q155.44 13.75 155.45 14.15L155.45 14.15L155.45 14.15Q155.46 14.55 155.48 14.87L155.48 14.87L155.48 14.87Q155.93 13.71 156.41 12.56L156.41 12.56L156.41 12.56Q156.90 11.42 157.37 10.38L157.37 10.38L157.37 10.38Q157.85 9.34 158.30 8.43L158.30 8.43L158.30 8.43Q158.75 7.53 159.12 6.82L159.12 6.82L159.12 6.82Q159.50 6.12 159.78 5.66L159.78 5.66L159.78 5.66Q160.06 5.19 160.22 5.04L160.22 5.04L160.22 5.04Q160.54 5.08 160.88 5.27L160.88 5.27L160.88 5.27Q161.22 5.46 161.49 5.75L161.49 5.75L161.49 5.75Q161.08 6.08 160.57 6.81L160.57 6.81L160.57 6.81Q160.05 7.55 159.50 8.51L159.50 8.51L159.50 8.51Q158.96 9.48 158.40 10.57L158.40 10.57L158.40 10.57Q157.85 11.66 157.37 12.70L157.37 12.70L157.37 12.70Q156.90 13.73 156.53 14.63L156.53 14.63L156.53 14.63Q156.16 15.53 155.96 16.07L155.96 16.07L155.96 16.07Q155.60 16.24 155.25 16.24L155.25 16.24L155.25 16.24Q154.80 16.18 154.40 16.02L154.40 16.02L154.40 16.02Q154 15.85 153.83 15.61L153.83 15.61L153.83 15.61Q153.79 15.39 153.76 15.09L153.76 15.09L153.76 15.09Q153.73 14.78 153.72 14.49L153.72 14.49L153.72 14.49Q153.71 14.20 153.70 13.92L153.70 13.92L153.70 13.92Q153.69 13.65 153.69 13.45L153.69 13.45L153.69 13.45Q153.69 12.21 153.79 10.91L153.79 10.91L153.79 10.91Q153.89 9.62 154.03 8.13L154.03 8.13L154.03 8.13Q153.71 9.09 153.31 10.18L153.31 10.18L153.31 10.18Q152.92 11.27 152.49 12.34L152.49 12.34L152.49 12.34Q152.07 13.41 151.63 14.38L151.63 14.38L151.63 14.38Q151.19 15.36 150.77 16.07L150.77 16.07L150.77 16.07Q150.40 16.24 150.05 16.24L150.05 16.24L150.05 16.24Q149.60 16.18 149.20 16.02L149.20 16.02L149.20 16.02Q148.81 15.85 148.64 15.61ZM167.64 16.24L167.64 16.24L167.64 16.24Q166.96 16.04 166.71 15.85L166.71 15.85L166.71 15.85Q166.45 15.65 166.45 15.36L166.45 15.36L166.45 15.36Q166.45 15.13 166.57 14.73L166.57 14.73L166.57 14.73Q166.70 14.32 166.94 13.77L166.94 13.77L166.94 13.77Q167.19 13.22 167.53 12.54L167.53 12.54L167.53 12.54Q167.87 11.87 168.31 11.10L168.31 11.10L168.31 11.10Q167.94 11.09 167.66 11.08L167.66 11.08L167.66 11.08Q167.37 11.07 167.19 11.07L167.19 11.07L167.19 11.07Q167.27 10.86 167.66 10.71L167.66 10.71L167.66 10.71Q168.06 10.56 168.70 10.44L168.70 10.44L168.70 10.44Q169.25 9.53 169.87 8.71L169.87 8.71L169.87 8.71Q170.49 7.88 171.12 7.19L171.12 7.19L171.12 7.19Q171.75 6.50 172.38 5.97L172.38 5.97L172.38 5.97Q173.01 5.45 173.59 5.14L173.59 5.14L173.59 5.14Q173.60 5.04 173.61 4.97L173.61 4.97L173.61 4.97Q173.61 4.90 173.61 4.87L173.61 4.87L173.61 4.87Q173.81 4.87 174.14 4.97L174.14 4.97L174.14 4.97Q174.47 5.07 174.78 5.21L174.78 5.21L174.78 5.21Q175.10 5.35 175.34 5.49L175.34 5.49L175.34 5.49Q175.59 5.64 175.62 5.74L175.62 5.74L175.62 5.74Q175.15 6.55 174.71 8.17L174.71 8.17L174.71 8.17Q174.26 9.79 173.96 12.04L173.96 12.04L173.96 12.04Q173.89 12.60 173.85 13.31L173.85 13.31L173.85 13.31Q173.80 14.03 173.80 14.91L173.80 14.91L173.80 14.91Q173.80 15.22 173.80 15.54L173.80 15.54L173.80 15.54Q173.80 15.86 173.82 16.21L173.82 16.21L173.82 16.21Q173.80 16.23 173.77 16.23L173.77 16.23L173.77 16.23Q173.74 16.23 173.66 16.23L173.66 16.23L173.66 16.23Q173.46 16.23 173.20 16.16L173.20 16.16L173.20 16.16Q172.94 16.10 172.70 16.01L172.70 16.01L172.70 16.01Q172.45 15.92 172.28 15.81L172.28 15.81L172.28 15.81Q172.10 15.69 172.06 15.61L172.06 15.61L172.06 15.61Q172.05 15.43 172.05 15.25L172.05 15.25L172.05 15.25Q172.05 15.08 172.05 14.88L172.05 14.88L172.05 14.88Q172.05 14.01 172.11 13.12L172.11 13.12L172.11 13.12Q172.17 12.22 172.33 11.27L172.33 11.27L172.33 11.27Q172.13 11.26 171.81 11.23L171.81 11.23L171.81 11.23Q171.49 11.21 171.09 11.20L171.09 11.20L171.09 11.20Q170.69 11.19 170.23 11.16L170.23 11.16L170.23 11.16Q169.78 11.14 169.34 11.13L169.34 11.13L169.34 11.13Q169.01 11.76 168.71 12.38L168.71 12.38L168.71 12.38Q168.42 13.01 168.21 13.64L168.21 13.64L168.21 13.64Q167.97 14.31 167.83 14.98L167.83 14.98L167.83 14.98Q167.68 15.65 167.64 16.24ZM173.04 7.83L173.04 7.83L173.04 7.83Q173.10 7.63 173.17 7.29L173.17 7.29L173.17 7.29Q173.25 6.94 173.32 6.57L173.32 6.57L173.32 6.57Q172.97 6.69 172.54 7.03L172.54 7.03L172.54 7.03Q172.12 7.36 171.66 7.86L171.66 7.86L171.66 7.86Q171.21 8.36 170.74 8.98L170.74 8.98L170.74 8.98Q170.27 9.60 169.83 10.30L169.83 10.30L169.83 10.30Q171.01 10.21 172.51 10.18L172.51 10.18L172.51 10.18Q172.62 9.59 172.75 9.01L172.75 9.01L172.75 9.01Q172.89 8.43 173.04 7.83ZM186.90 16.07L186.90 16.07L186.90 16.07Q186.58 16.24 186.21 16.24L186.21 16.24L186.21 16.24Q185.77 16.18 185.35 16.02L185.35 16.02L185.35 16.02Q184.94 15.85 184.74 15.61L184.74 15.61L184.74 15.61Q184.63 14.92 184.56 14.35L184.56 14.35L184.56 14.35Q184.49 13.78 184.45 13.27L184.45 13.27L184.45 13.27Q184.41 12.75 184.39 12.29L184.39 12.29L184.39 12.29Q184.38 11.82 184.38 11.34L184.38 11.34L184.38 11.34Q184.38 10.71 184.39 10.01L184.39 10.01L184.39 10.01Q184.41 9.31 184.43 8.52L184.43 8.52L184.43 8.52Q184.45 7.73 184.46 6.82L184.46 6.82L184.46 6.82Q184.48 5.92 184.48 4.86L184.48 4.86L184.48 4.86Q184.66 4.86 185.02 4.96L185.02 4.96L185.02 4.96Q185.39 5.07 185.75 5.21L185.75 5.21L185.75 5.21Q186.10 5.35 186.38 5.49L186.38 5.49L186.38 5.49Q186.66 5.64 186.69 5.74L186.69 5.74L186.69 5.74Q186.55 6.13 186.45 6.76L186.45 6.76L186.45 6.76Q186.34 7.39 186.28 8.16L186.28 8.16L186.28 8.16Q186.21 8.93 186.19 9.79L186.19 9.79L186.19 9.79Q186.16 10.64 186.16 11.48L186.16 11.48L186.16 11.48Q186.16 12.11 186.17 12.61L186.17 12.61L186.17 12.61Q186.19 13.10 186.21 13.50L186.21 13.50L186.21 13.50Q186.23 13.90 186.27 14.25L186.27 14.25L186.27 14.25Q186.31 14.59 186.37 14.92L186.37 14.92L186.37 14.92Q186.76 13.73 187.23 12.54L187.23 12.54L187.23 12.54Q187.70 11.35 188.20 10.25L188.20 10.25L188.20 10.25Q188.69 9.16 189.18 8.20L189.18 8.20L189.18 8.20Q189.67 7.25 190.11 6.54L190.11 6.54L190.11 6.54Q190.55 5.84 190.90 5.43L190.90 5.43L190.90 5.43Q191.25 5.01 191.48 4.98L191.48 4.98L191.48 4.98Q191.63 5.01 191.81 5.10L191.81 5.10L191.81 5.10Q191.98 5.19 192.14 5.32L192.14 5.32L192.14 5.32Q192.29 5.45 192.42 5.60L192.42 5.60L192.42 5.60Q192.54 5.75 192.61 5.91L192.61 5.91L192.61 5.91Q192.09 6.09 191.50 6.76L191.50 6.76L191.50 6.76Q190.90 7.43 190.30 8.38L190.30 8.38L190.30 8.38Q189.70 9.32 189.13 10.44L189.13 10.44L189.13 10.44Q188.57 11.55 188.11 12.61L188.11 12.61L188.11 12.61Q187.66 13.68 187.33 14.60L187.33 14.60L187.33 14.60Q187.01 15.53 186.90 16.07ZM203.87 9.21L203.87 9.21L203.87 9.21Q204.33 9.21 204.59 9.46L204.59 9.46L204.59 9.46Q204.85 9.72 204.85 10.16L204.85 10.16L204.85 10.16Q204.85 10.28 204.83 10.39L204.83 10.39L204.83 10.39Q204.81 10.51 204.78 10.60L204.78 10.60L204.78 10.60Q204.60 10.57 204.37 10.55L204.37 10.55L204.37 10.55Q204.15 10.53 203.84 10.53L203.84 10.53L203.84 10.53Q203.24 10.53 202.62 10.63L202.62 10.63L202.62 10.63Q202.01 10.74 201.45 10.81L201.45 10.81L201.45 10.81Q201.12 11.55 200.86 12.24L200.86 12.24L200.86 12.24Q200.59 12.94 200.40 13.51L200.40 13.51L200.40 13.51Q200.21 14.08 200.11 14.50L200.11 14.50L200.11 14.50Q200.00 14.92 199.99 15.13L199.99 15.13L199.99 15.13Q201.12 14.90 202.28 14.73L202.28 14.73L202.28 14.73Q203.43 14.56 204.71 14.48L204.71 14.48L204.71 14.48Q204.86 14.71 204.97 14.99L204.97 14.99L204.97 14.99Q205.07 15.27 205.07 15.60L205.07 15.60L205.07 15.60Q205.07 15.68 205.07 15.78L205.07 15.78L205.07 15.78Q205.07 15.88 205.04 15.97L205.04 15.97L205.04 15.97Q204.65 15.96 204.22 15.95L204.22 15.95L204.22 15.95Q203.78 15.95 203.08 15.95L203.08 15.95L203.08 15.95Q202.62 15.95 202.21 15.97L202.21 15.97L202.21 15.97Q201.80 15.99 201.38 16.03L201.38 16.03L201.38 16.03Q200.96 16.07 200.49 16.14L200.49 16.14L200.49 16.14Q200.02 16.21 199.43 16.31L199.43 16.31L199.43 16.31Q198.79 16.06 198.18 15.08L198.18 15.08L198.18 15.08Q198.42 14.57 198.85 13.54L198.85 13.54L198.85 13.54Q199.28 12.52 199.93 10.79L199.93 10.79L199.93 10.79Q199.30 10.60 199.11 10.09L199.11 10.09L199.11 10.09Q199.18 10.02 199.51 9.92L199.51 9.92L199.51 9.92Q199.85 9.81 200.34 9.70L200.34 9.70L200.34 9.70Q200.55 9.16 200.70 8.75L200.70 8.75L200.70 8.75Q200.84 8.34 200.96 7.99L200.96 7.99L200.96 7.99Q201.07 7.63 201.16 7.29L201.16 7.29L201.16 7.29Q201.25 6.94 201.33 6.54L201.33 6.54L201.33 6.54Q200.84 6.51 200.56 6.27L200.56 6.27L200.56 6.27Q200.28 6.02 200.28 5.63L200.28 5.63L200.28 5.63Q200.28 5.52 200.32 5.36L200.32 5.36L200.32 5.36Q200.35 5.21 200.40 5.10L200.40 5.10L200.40 5.10Q200.68 5.14 200.94 5.15L200.94 5.15L200.94 5.15Q201.19 5.17 201.61 5.17L201.61 5.17L201.61 5.17Q202.50 5.17 203.27 5.12L203.27 5.12L203.27 5.12Q204.04 5.07 204.66 5.01L204.66 5.01L204.66 5.01Q205.28 4.96 205.73 4.91L205.73 4.91L205.73 4.91Q206.18 4.86 206.42 4.86L206.42 4.86L206.42 4.86Q206.74 4.86 206.99 5.19L206.99 5.19L206.99 5.19Q207.24 5.53 207.37 6.15L207.37 6.15L207.37 6.15Q206.93 6.10 206.66 6.09L206.66 6.09L206.66 6.09Q206.39 6.08 206.18 6.08L206.18 6.08L206.18 6.08Q205.41 6.08 204.77 6.15L204.77 6.15L204.77 6.15Q204.13 6.23 203.55 6.31L203.55 6.31L203.55 6.31Q203.46 6.44 203.36 6.64L203.36 6.64L203.36 6.64Q203.25 6.83 203.08 7.18L203.08 7.18L203.08 7.18Q202.92 7.53 202.67 8.06L202.67 8.06L202.67 8.06Q202.43 8.60 202.08 9.39L202.08 9.39L202.08 9.39Q202.61 9.31 203.08 9.26L203.08 9.26L203.08 9.26Q203.55 9.21 203.87 9.21Z"></path></g></svg>